<mxfile host="app.diagrams.net" modified="2024-03-23T08:49:06.099Z" agent="Mozilla/5.0 (Windows NT 10.0; Win64; x64; rv:124.0) Gecko/20100101 Firefox/124.0" etag="SoUs1OmCpOC6bwZ6ho5L" version="24.0.7" type="github">
  <diagram name="Page-1" id="dd472eb7-4b8b-5cd9-a60b-b15522922e76">
    <mxGraphModel dx="2150" dy="558" grid="0" gridSize="10" guides="1" tooltips="1" connect="1" arrows="1" fold="1" page="1" pageScale="1" pageWidth="1100" pageHeight="850" background="#FFFFFF" math="0" shadow="1">
      <root>
        <mxCell id="0" />
        <mxCell id="1" parent="0" />
        <mxCell id="45236fa5f4b8e91a-2" value="&lt;font color=&quot;#00060d&quot;&gt;literary translation&lt;br&gt;&lt;/font&gt;" style="ellipse;whiteSpace=wrap;html=1;rounded=0;shadow=0;dashed=0;comic=0;fontFamily=Verdana;fontSize=22;fontColor=#0069D1;fillColor=#f5f5f5;strokeColor=#666666;" parent="1" vertex="1">
          <mxGeometry x="440" y="560" width="180" height="180" as="geometry" />
        </mxCell>
        <mxCell id="45236fa5f4b8e91a-3" value="&lt;div&gt;naukowe,&lt;/div&gt;&lt;div&gt;medyczne&lt;br&gt;&lt;/div&gt;" style="ellipse;whiteSpace=wrap;html=1;rounded=0;shadow=0;dashed=0;comic=0;fontFamily=Verdana;fontSize=22;fillColor=#fad7ac;strokeColor=#b46504;" parent="1" vertex="1">
          <mxGeometry x="700" y="291.26" width="180" height="180" as="geometry" />
        </mxCell>
        <mxCell id="45236fa5f4b8e91a-4" value="&lt;font style=&quot;font-size: 22px;&quot;&gt;copywriting, SEO, content marketing&lt;br&gt;&lt;/font&gt;" style="ellipse;whiteSpace=wrap;html=1;rounded=0;shadow=0;dashed=0;comic=0;fontFamily=Verdana;fontSize=22;fillColor=#bac8d3;strokeColor=#23445d;" parent="1" vertex="1">
          <mxGeometry x="190" y="291.26" width="180" height="180" as="geometry" />
        </mxCell>
        <mxCell id="45236fa5f4b8e91a-5" value="&lt;div style=&quot;&quot;&gt;&lt;font style=&quot;font-size: 22px;&quot;&gt;&amp;nbsp;technical documentation&lt;br&gt;&lt;/font&gt;&lt;/div&gt;&lt;div style=&quot;&quot;&gt;&lt;font style=&quot;font-size: 22px;&quot;&gt;&lt;br&gt;&lt;/font&gt;&lt;/div&gt;" style="ellipse;whiteSpace=wrap;html=1;rounded=0;shadow=0;dashed=0;comic=0;fontFamily=Verdana;fontSize=22;fillColor=#bac8d3;strokeColor=#23445d;" parent="1" vertex="1">
          <mxGeometry x="290" y="110" width="180" height="180" as="geometry" />
        </mxCell>
        <mxCell id="45236fa5f4b8e91a-6" value="&lt;div style=&quot;&quot;&gt;&lt;font style=&quot;font-size: 22px;&quot; face=&quot;Verdana&quot;&gt;&amp;nbsp;&lt;/font&gt;&lt;font style=&quot;font-size: 22px;&quot; face=&quot;3_kRnwSZ05rTefSs1a9Z&quot;&gt;&lt;br&gt;&lt;/font&gt;&lt;/div&gt;&lt;div style=&quot;&quot;&gt;&lt;font style=&quot;font-size: 22px;&quot; face=&quot;3_kRnwSZ05rTefSs1a9Z&quot;&gt;&amp;nbsp; techniczne,&lt;/font&gt;&lt;/div&gt;&lt;div style=&quot;&quot;&gt;&lt;font style=&quot;font-size: 22px;&quot; face=&quot;3_kRnwSZ05rTefSs1a9Z&quot;&gt;&amp;nbsp;specjalistyczne&lt;/font&gt;&lt;/div&gt;&lt;div style=&quot;&quot;&gt;&lt;font style=&quot;font-size: 22px;&quot; face=&quot;3_kRnwSZ05rTefSs1a9Z&quot;&gt;patenty,&lt;/font&gt;&lt;/div&gt;&lt;div style=&quot;&quot;&gt;&lt;font style=&quot;font-size: 22px;&quot; face=&quot;3_kRnwSZ05rTefSs1a9Z&quot;&gt;normy&lt;br&gt;&lt;/font&gt;&lt;/div&gt;&lt;div style=&quot;&quot;&gt;&lt;font style=&quot;font-size: 22px;&quot; face=&quot;3_kRnwSZ05rTefSs1a9Z&quot;&gt;&lt;br&gt;&lt;/font&gt;&lt;/div&gt;" style="ellipse;whiteSpace=wrap;html=1;rounded=0;shadow=0;dashed=0;comic=0;fontFamily=Verdana;fontSize=22;fillColor=#fad7ac;strokeColor=#b46504;" parent="1" vertex="1">
          <mxGeometry x="600" y="110" width="180" height="180" as="geometry" />
        </mxCell>
        <mxCell id="45236fa5f4b8e91a-7" value="&lt;div&gt;&lt;font style=&quot;font-size: 21px;&quot;&gt;&amp;nbsp;marketingowe,&lt;/font&gt;&lt;/div&gt;&lt;div&gt;&lt;font style=&quot;font-size: 21px;&quot;&gt;strony www&lt;br&gt;&lt;/font&gt;&lt;/div&gt;" style="ellipse;whiteSpace=wrap;html=1;rounded=0;shadow=0;dashed=0;comic=0;fontFamily=Verdana;fontSize=22;fillColor=#fad7ac;strokeColor=#b46504;" parent="1" vertex="1">
          <mxGeometry x="620" y="470" width="180" height="180" as="geometry" />
        </mxCell>
        <mxCell id="45236fa5f4b8e91a-8" value="proofreading" style="ellipse;whiteSpace=wrap;html=1;rounded=0;shadow=0;dashed=0;comic=0;fontFamily=Verdana;fontSize=22;fillColor=#bac8d3;strokeColor=#23445d;" parent="1" vertex="1">
          <mxGeometry x="260" y="470" width="180" height="180" as="geometry" />
        </mxCell>
        <mxCell id="bTzxaUfQtD9iZVpZiJUE-5" value="&lt;font face=&quot;Verdana&quot; style=&quot;font-size: 20px;&quot;&gt;&lt;b&gt;Wymagasz narzędzi CAT? Używam:&lt;br&gt;&lt;/b&gt;&lt;/font&gt;&lt;div style=&quot;font-size: 20px;&quot;&gt;&lt;font face=&quot;91rZdBT9kLizhOjYf7mg&quot; style=&quot;font-size: 20px;&quot;&gt;SDL Trados Studio&lt;/font&gt;&lt;/div&gt;&lt;div style=&quot;font-size: 20px;&quot;&gt;&lt;font face=&quot;91rZdBT9kLizhOjYf7mg&quot; style=&quot;font-size: 20px;&quot;&gt;Memsource&lt;/font&gt;&lt;/div&gt;&lt;div style=&quot;font-size: 20px;&quot;&gt;&lt;font face=&quot;91rZdBT9kLizhOjYf7mg&quot; style=&quot;font-size: 20px;&quot;&gt;MemoQ&lt;/font&gt;&lt;/div&gt;&lt;div style=&quot;font-size: 20px;&quot;&gt;&lt;font face=&quot;91rZdBT9kLizhOjYf7mg&quot; style=&quot;font-size: 20px;&quot;&gt;OmegaT&lt;br&gt;&lt;/font&gt;&lt;/div&gt;" style="rounded=0;whiteSpace=wrap;html=1;fillColor=#fad7ac;strokeColor=#b46504;fontColor=default;" parent="1" vertex="1">
          <mxGeometry x="850" y="129.5" width="245" height="173" as="geometry" />
        </mxCell>
        <mxCell id="bTzxaUfQtD9iZVpZiJUE-11" value="" style="endArrow=classic;html=1;rounded=0;entryX=1;entryY=0.433;entryDx=0;entryDy=0;entryPerimeter=0;" parent="1" source="45236fa5f4b8e91a-5" target="bTzxaUfQtD9iZVpZiJUE-13" edge="1">
          <mxGeometry width="50" height="50" relative="1" as="geometry">
            <mxPoint x="250" y="190" as="sourcePoint" />
            <mxPoint x="220" y="160" as="targetPoint" />
          </mxGeometry>
        </mxCell>
        <mxCell id="bTzxaUfQtD9iZVpZiJUE-13" value="&lt;font style=&quot;font-size: 19px;&quot; face=&quot;Verdana&quot;&gt;&lt;b&gt;I use:&lt;br&gt;&lt;/b&gt;Oxygen&lt;br&gt;GitHub&lt;br&gt;Canva&lt;br&gt;WordPress&lt;br&gt;Google Docs&lt;br&gt;Microsoft Word&lt;br&gt;&lt;br&gt;markdown&lt;br&gt;DITA XML&lt;br&gt;&lt;/font&gt;" style="rounded=0;whiteSpace=wrap;html=1;fillColor=#bac8d3;strokeColor=#23445d;fontColor=#0A0A0A;" parent="1" vertex="1">
          <mxGeometry y="68" width="205" height="247" as="geometry" />
        </mxCell>
        <mxCell id="bTzxaUfQtD9iZVpZiJUE-22" value="&lt;div style=&quot;font-size: 25px;&quot;&gt;&lt;font style=&quot;font-size: 25px;&quot;&gt;WRITING:&lt;/font&gt;&lt;/div&gt;" style="shape=step;perimeter=stepPerimeter;whiteSpace=wrap;html=1;fixedSize=1;fillColor=#bac8d3;strokeColor=#23445d;" parent="1" vertex="1">
          <mxGeometry x="227" y="30" width="225" height="90" as="geometry" />
        </mxCell>
        <mxCell id="bTzxaUfQtD9iZVpZiJUE-24" value="&lt;font style=&quot;font-size: 25px;&quot;&gt;&amp;nbsp;TRANSLATION:&lt;/font&gt;" style="shape=step;perimeter=stepPerimeter;whiteSpace=wrap;html=1;fixedSize=1;fillColor=#ffe6cc;strokeColor=#d79b00;" parent="1" vertex="1">
          <mxGeometry x="677.5" y="30" width="225" height="90" as="geometry" />
        </mxCell>
        <mxCell id="bTzxaUfQtD9iZVpZiJUE-30" value="" style="shape=waypoint;sketch=0;fillStyle=solid;size=6;pointerEvents=1;points=[];fillColor=none;resizable=0;rotatable=0;perimeter=centerPerimeter;snapToPoint=1;" parent="1" vertex="1">
          <mxGeometry x="314" y="164" width="20" height="20" as="geometry" />
        </mxCell>
        <mxCell id="bTzxaUfQtD9iZVpZiJUE-31" value="" style="shape=waypoint;sketch=0;fillStyle=solid;size=6;pointerEvents=1;points=[];fillColor=none;resizable=0;rotatable=0;perimeter=centerPerimeter;snapToPoint=1;" parent="1" vertex="1">
          <mxGeometry x="194" y="347" width="20" height="20" as="geometry" />
        </mxCell>
        <mxCell id="bTzxaUfQtD9iZVpZiJUE-32" value="" style="shape=waypoint;sketch=0;fillStyle=solid;size=6;pointerEvents=1;points=[];fillColor=none;resizable=0;rotatable=0;perimeter=centerPerimeter;snapToPoint=1;" parent="1" vertex="1">
          <mxGeometry x="260" y="552" width="20" height="20" as="geometry" />
        </mxCell>
        <mxCell id="bTzxaUfQtD9iZVpZiJUE-4" value="" style="endArrow=classic;html=1;rounded=0;entryX=0.056;entryY=0.394;entryDx=0;entryDy=0;entryPerimeter=0;exitX=1.006;exitY=0.444;exitDx=0;exitDy=0;exitPerimeter=0;" parent="1" source="45236fa5f4b8e91a-6" target="bTzxaUfQtD9iZVpZiJUE-5" edge="1">
          <mxGeometry width="50" height="50" relative="1" as="geometry">
            <mxPoint x="777" y="189.57" as="sourcePoint" />
            <mxPoint x="827" y="185.99857142857144" as="targetPoint" />
          </mxGeometry>
        </mxCell>
        <mxCell id="bTzxaUfQtD9iZVpZiJUE-37" value="" style="shape=waypoint;sketch=0;fillStyle=solid;size=6;pointerEvents=1;points=[];fillColor=none;resizable=0;rotatable=0;perimeter=centerPerimeter;snapToPoint=1;" parent="1" vertex="1">
          <mxGeometry x="470" y="630" width="20" height="20" as="geometry" />
        </mxCell>
        <mxCell id="bTzxaUfQtD9iZVpZiJUE-39" value="" style="shape=waypoint;sketch=0;fillStyle=solid;size=6;pointerEvents=1;points=[];fillColor=none;resizable=0;rotatable=0;perimeter=centerPerimeter;snapToPoint=1;" parent="1" vertex="1">
          <mxGeometry x="617" y="152" width="20" height="20" as="geometry" />
        </mxCell>
        <mxCell id="bTzxaUfQtD9iZVpZiJUE-40" value="" style="shape=waypoint;sketch=0;fillStyle=solid;size=6;pointerEvents=1;points=[];fillColor=none;resizable=0;rotatable=0;perimeter=centerPerimeter;snapToPoint=1;" parent="1" vertex="1">
          <mxGeometry x="628" y="206" width="20" height="20" as="geometry" />
        </mxCell>
        <mxCell id="bTzxaUfQtD9iZVpZiJUE-41" value="" style="shape=waypoint;sketch=0;fillStyle=solid;size=6;pointerEvents=1;points=[];fillColor=none;resizable=0;rotatable=0;perimeter=centerPerimeter;snapToPoint=1;" parent="1" vertex="1">
          <mxGeometry x="716" y="360" width="20" height="20" as="geometry" />
        </mxCell>
        <mxCell id="bTzxaUfQtD9iZVpZiJUE-43" value="" style="shape=waypoint;sketch=0;fillStyle=solid;size=6;pointerEvents=1;points=[];fillColor=none;resizable=0;rotatable=0;perimeter=centerPerimeter;snapToPoint=1;" parent="1" vertex="1">
          <mxGeometry x="617" y="540" width="20" height="20" as="geometry" />
        </mxCell>
        <mxCell id="bTzxaUfQtD9iZVpZiJUE-46" value="" style="endArrow=classic;html=1;rounded=0;" parent="1" target="bTzxaUfQtD9iZVpZiJUE-47" edge="1">
          <mxGeometry width="50" height="50" relative="1" as="geometry">
            <mxPoint x="578" y="695" as="sourcePoint" />
            <mxPoint x="683" y="708" as="targetPoint" />
          </mxGeometry>
        </mxCell>
        <mxCell id="bTzxaUfQtD9iZVpZiJUE-47" value="&lt;div&gt;&lt;font face=&quot;Verdana&quot;&gt;&lt;font style=&quot;font-size: 18px;&quot;&gt;fiction, poetry,&amp;nbsp;&lt;/font&gt;&lt;/font&gt;&lt;/div&gt;&lt;div&gt;&lt;font face=&quot;Verdana&quot;&gt;&lt;font style=&quot;font-size: 18px;&quot;&gt;non-fiction, cross-genre&lt;/font&gt;&lt;/font&gt;&lt;/div&gt;" style="rounded=0;whiteSpace=wrap;html=1;" parent="1" vertex="1">
          <mxGeometry x="623" y="678" width="240" height="96" as="geometry" />
        </mxCell>
        <mxCell id="bTzxaUfQtD9iZVpZiJUE-48" value="&lt;font style=&quot;font-size: 18px;&quot; face=&quot;Verdana&quot;&gt;translation of texts into English and/or linguistic localization; &lt;br&gt;editing and proofreading of existing texts for spelling, grammar, syntax, style, and &lt;br&gt;logical consistency&lt;/font&gt;" style="rounded=0;whiteSpace=wrap;html=1;fillColor=#bac8d3;strokeColor=#23445d;" parent="1" vertex="1">
          <mxGeometry x="-20" y="630" width="287.5" height="180" as="geometry" />
        </mxCell>
        <mxCell id="bTzxaUfQtD9iZVpZiJUE-49" value="" style="endArrow=classic;html=1;rounded=0;exitX=0;exitY=0.5;exitDx=0;exitDy=0;" parent="1" source="45236fa5f4b8e91a-8" target="bTzxaUfQtD9iZVpZiJUE-48" edge="1">
          <mxGeometry width="50" height="50" relative="1" as="geometry">
            <mxPoint x="130" y="585" as="sourcePoint" />
            <mxPoint x="180" y="535" as="targetPoint" />
          </mxGeometry>
        </mxCell>
      </root>
    </mxGraphModel>
  </diagram>
</mxfile>
